<mxfile host="Electron" agent="Mozilla/5.0 (Windows NT 10.0; Win64; x64) AppleWebKit/537.36 (KHTML, like Gecko) draw.io/24.7.17 Chrome/128.0.6613.36 Electron/32.0.1 Safari/537.36" version="24.7.17">
  <diagram id="C5RBs43oDa-KdzZeNtuy" name="Page-1">
    <mxGraphModel dx="1036" dy="606" grid="1" gridSize="10" guides="1" tooltips="1" connect="1" arrows="1" fold="1" page="1" pageScale="1" pageWidth="827" pageHeight="1169" math="0" shadow="0">
      <root>
        <mxCell id="WIyWlLk6GJQsqaUBKTNV-0" />
        <mxCell id="WIyWlLk6GJQsqaUBKTNV-1" parent="WIyWlLk6GJQsqaUBKTNV-0" />
        <mxCell id="aResad0k_2z1aMf4Z9Is-6" style="edgeStyle=orthogonalEdgeStyle;rounded=0;orthogonalLoop=1;jettySize=auto;html=1;entryX=0.5;entryY=0;entryDx=0;entryDy=0;" edge="1" parent="WIyWlLk6GJQsqaUBKTNV-1" source="aResad0k_2z1aMf4Z9Is-0" target="aResad0k_2z1aMf4Z9Is-1">
          <mxGeometry relative="1" as="geometry" />
        </mxCell>
        <mxCell id="aResad0k_2z1aMf4Z9Is-0" value="Start" style="ellipse;whiteSpace=wrap;html=1;" vertex="1" parent="WIyWlLk6GJQsqaUBKTNV-1">
          <mxGeometry x="295" y="40" width="120" height="80" as="geometry" />
        </mxCell>
        <mxCell id="aResad0k_2z1aMf4Z9Is-7" style="edgeStyle=orthogonalEdgeStyle;rounded=0;orthogonalLoop=1;jettySize=auto;html=1;exitX=0.5;exitY=1;exitDx=0;exitDy=0;entryX=0.5;entryY=0;entryDx=0;entryDy=0;" edge="1" parent="WIyWlLk6GJQsqaUBKTNV-1" source="aResad0k_2z1aMf4Z9Is-1" target="aResad0k_2z1aMf4Z9Is-2">
          <mxGeometry relative="1" as="geometry" />
        </mxCell>
        <mxCell id="aResad0k_2z1aMf4Z9Is-1" value="Input : Nhập a và b" style="shape=parallelogram;perimeter=parallelogramPerimeter;whiteSpace=wrap;html=1;fixedSize=1;" vertex="1" parent="WIyWlLk6GJQsqaUBKTNV-1">
          <mxGeometry x="280" y="180" width="150" height="60" as="geometry" />
        </mxCell>
        <mxCell id="aResad0k_2z1aMf4Z9Is-8" style="edgeStyle=orthogonalEdgeStyle;rounded=0;orthogonalLoop=1;jettySize=auto;html=1;entryX=0.5;entryY=0;entryDx=0;entryDy=0;" edge="1" parent="WIyWlLk6GJQsqaUBKTNV-1" source="aResad0k_2z1aMf4Z9Is-2" target="aResad0k_2z1aMf4Z9Is-4">
          <mxGeometry relative="1" as="geometry" />
        </mxCell>
        <mxCell id="aResad0k_2z1aMf4Z9Is-2" value="c = a + b" style="rhombus;whiteSpace=wrap;html=1;" vertex="1" parent="WIyWlLk6GJQsqaUBKTNV-1">
          <mxGeometry x="295" y="300" width="120" height="110" as="geometry" />
        </mxCell>
        <mxCell id="aResad0k_2z1aMf4Z9Is-9" style="edgeStyle=orthogonalEdgeStyle;rounded=0;orthogonalLoop=1;jettySize=auto;html=1;entryX=0.5;entryY=0;entryDx=0;entryDy=0;" edge="1" parent="WIyWlLk6GJQsqaUBKTNV-1" source="aResad0k_2z1aMf4Z9Is-4" target="aResad0k_2z1aMf4Z9Is-5">
          <mxGeometry relative="1" as="geometry" />
        </mxCell>
        <mxCell id="aResad0k_2z1aMf4Z9Is-4" value="Xuất c" style="shape=parallelogram;perimeter=parallelogramPerimeter;whiteSpace=wrap;html=1;fixedSize=1;" vertex="1" parent="WIyWlLk6GJQsqaUBKTNV-1">
          <mxGeometry x="295" y="460" width="120" height="70" as="geometry" />
        </mxCell>
        <mxCell id="aResad0k_2z1aMf4Z9Is-5" value="End" style="ellipse;whiteSpace=wrap;html=1;" vertex="1" parent="WIyWlLk6GJQsqaUBKTNV-1">
          <mxGeometry x="295" y="600" width="120" height="80" as="geometry" />
        </mxCell>
      </root>
    </mxGraphModel>
  </diagram>
</mxfile>
